<svg width="194" height="38" viewBox="0 0 194 38" fill="none" xmlns="http://www.w3.org/2000/svg">
<circle cx="175" cy="19" r="19" fill="#056ECF"/>
<path d="M9.59313 30.36C7.93313 30.36 6.32313 30.14 4.76313 29.7C3.22313 29.24 1.98313 28.65 1.04313 27.93L2.69313 24.27C3.59313 24.93 4.66313 25.46 5.90313 25.86C7.14313 26.26 8.38313 26.46 9.62313 26.46C11.0031 26.46 12.0231 26.26 12.6831 25.86C13.3431 25.44 13.6731 24.89 13.6731 24.21C13.6731 23.71 13.4731 23.3 13.0731 22.98C12.6931 22.64 12.1931 22.37 11.5731 22.17C10.9731 21.97 10.1531 21.75 9.11313 21.51C7.51313 21.13 6.20313 20.75 5.18313 20.37C4.16313 19.99 3.28313 19.38 2.54313 18.54C1.82313 17.7 1.46313 16.58 1.46313 15.18C1.46313 13.96 1.79313 12.86 2.45313 11.88C3.11313 10.88 4.10313 10.09 5.42313 9.51C6.76313 8.93 8.39313 8.64 10.3131 8.64C11.6531 8.64 12.9631 8.8 14.2431 9.12C15.5231 9.44 16.6431 9.9 17.6031 10.5L16.1031 14.19C14.1631 13.09 12.2231 12.54 10.2831 12.54C8.92313 12.54 7.91313 12.76 7.25313 13.2C6.61313 13.64 6.29313 14.22 6.29313 14.94C6.29313 15.66 6.66313 16.2 7.40313 16.56C8.16313 16.9 9.31313 17.24 10.8531 17.58C12.4531 17.96 13.7631 18.34 14.7831 18.72C15.8031 19.1 16.6731 19.7 17.3931 20.52C18.1331 21.34 18.5031 22.45 18.5031 23.85C18.5031 25.05 18.1631 26.15 17.4831 27.15C16.8231 28.13 15.8231 28.91 14.4831 29.49C13.1431 30.07 11.5131 30.36 9.59313 30.36ZM31.4645 22.56V30H26.6045V22.5L18.4745 9H23.6345L29.2445 18.33L34.8545 9H39.6245L31.4645 22.56ZM60.7129 9V30H56.7229L46.2529 17.25V30H41.4529V9H45.4729L55.9129 21.75V9H60.7129ZM81.9414 26.1V30H65.6814V9H81.5514V12.9H70.5114V17.46H80.2614V21.24H70.5114V26.1H81.9414ZM99.1884 30L95.1384 24.15H94.8984H90.6684V30H85.8084V9H94.8984C96.7584 9 98.3684 9.31 99.7284 9.93C101.108 10.55 102.168 11.43 102.908 12.57C103.648 13.71 104.018 15.06 104.018 16.62C104.018 18.18 103.638 19.53 102.878 20.67C102.138 21.79 101.078 22.65 99.6984 23.25L104.408 30H99.1884ZM99.0984 16.62C99.0984 15.44 98.7184 14.54 97.9584 13.92C97.1984 13.28 96.0884 12.96 94.6284 12.96H90.6684V20.28H94.6284C96.0884 20.28 97.1984 19.96 97.9584 19.32C98.7184 18.68 99.0984 17.78 99.0984 16.62ZM122.059 19.17H126.499V27.69C125.359 28.55 124.039 29.21 122.539 29.67C121.039 30.13 119.529 30.36 118.009 30.36C115.829 30.36 113.869 29.9 112.129 28.98C110.389 28.04 109.019 26.75 108.019 25.11C107.039 23.45 106.549 21.58 106.549 19.5C106.549 17.42 107.039 15.56 108.019 13.92C109.019 12.26 110.399 10.97 112.159 10.05C113.919 9.11 115.899 8.64 118.099 8.64C119.939 8.64 121.609 8.95 123.109 9.57C124.609 10.19 125.869 11.09 126.889 12.27L123.769 15.15C122.269 13.57 120.459 12.78 118.339 12.78C116.999 12.78 115.809 13.06 114.769 13.62C113.729 14.18 112.919 14.97 112.339 15.99C111.759 17.01 111.469 18.18 111.469 19.5C111.469 20.8 111.759 21.96 112.339 22.98C112.919 24 113.719 24.8 114.739 25.38C115.779 25.94 116.959 26.22 118.279 26.22C119.679 26.22 120.939 25.92 122.059 25.32V19.17ZM141.093 22.56V30H136.233V22.5L128.103 9H133.263L138.873 18.33L144.483 9H149.253L141.093 22.56Z" fill="#1C1C1C"/>
<path d="M170.074 22.375L170.064 18.175L168.004 21.635H167.274L165.224 18.265V22.375H163.704V15.375H165.044L167.664 19.725L170.244 15.375H171.574L171.594 22.375H170.074ZM175.555 22.495C175.001 22.495 174.465 22.4217 173.945 22.275C173.431 22.1217 173.018 21.925 172.705 21.685L173.255 20.465C173.555 20.685 173.911 20.8617 174.325 20.995C174.738 21.1283 175.151 21.195 175.565 21.195C176.025 21.195 176.365 21.1283 176.585 20.995C176.805 20.855 176.915 20.6717 176.915 20.445C176.915 20.2783 176.848 20.1417 176.715 20.035C176.588 19.9217 176.421 19.8317 176.215 19.765C176.015 19.6983 175.741 19.625 175.395 19.545C174.861 19.4183 174.425 19.2917 174.085 19.165C173.745 19.0383 173.451 18.835 173.205 18.555C172.965 18.275 172.845 17.9017 172.845 17.435C172.845 17.0283 172.955 16.6617 173.175 16.335C173.395 16.0017 173.725 15.7383 174.165 15.545C174.611 15.3517 175.155 15.255 175.795 15.255C176.241 15.255 176.678 15.3083 177.105 15.415C177.531 15.5217 177.905 15.675 178.225 15.875L177.725 17.105C177.078 16.7383 176.431 16.555 175.785 16.555C175.331 16.555 174.995 16.6283 174.775 16.775C174.561 16.9217 174.455 17.115 174.455 17.355C174.455 17.595 174.578 17.775 174.825 17.895C175.078 18.0083 175.461 18.1217 175.975 18.235C176.508 18.3617 176.945 18.4883 177.285 18.615C177.625 18.7417 177.915 18.9417 178.155 19.215C178.401 19.4883 178.525 19.8583 178.525 20.325C178.525 20.725 178.411 21.0917 178.185 21.425C177.965 21.7517 177.631 22.0117 177.185 22.205C176.738 22.3983 176.195 22.495 175.555 22.495ZM182.662 15.375C183.282 15.375 183.818 15.4783 184.272 15.685C184.732 15.8917 185.085 16.185 185.332 16.565C185.578 16.945 185.702 17.395 185.702 17.915C185.702 18.4283 185.578 18.8783 185.332 19.265C185.085 19.645 184.732 19.9383 184.272 20.145C183.818 20.345 183.282 20.445 182.662 20.445H181.252V22.375H179.632V15.375H182.662ZM182.572 19.125C183.058 19.125 183.428 19.0217 183.682 18.815C183.935 18.6017 184.062 18.3017 184.062 17.915C184.062 17.5217 183.935 17.2217 183.682 17.015C183.428 16.8017 183.058 16.695 182.572 16.695H181.252V19.125H182.572Z" fill="white"/>
</svg>
